<svg width="50" height="53" viewBox="0 0 50 53" fill="none" xmlns="http://www.w3.org/2000/svg">
<path d="M37.3319 52.0248C44.1427 52.0248 49.6639 46.4228 49.6639 39.5124C49.6639 32.602 44.1427 27 37.3319 27C30.5212 27 25 32.602 25 39.5124C25 46.4228 30.5212 52.0248 37.3319 52.0248Z" fill="#FB6A63"/>
<path fill-rule="evenodd" clip-rule="evenodd" d="M24.9999 4.16666C19.247 4.16666 14.5833 8.83036 14.5833 14.5833C14.5833 20.3363 19.247 25 24.9999 25C30.7529 25 35.4166 20.3363 35.4166 14.5833C35.4166 8.83036 30.7529 4.16666 24.9999 4.16666ZM18.7499 14.5833C18.7499 11.1316 21.5481 8.33333 24.9999 8.33333C28.4517 8.33333 31.2499 11.1316 31.2499 14.5833C31.2499 18.0351 28.4517 20.8333 24.9999 20.8333C21.5481 20.8333 18.7499 18.0351 18.7499 14.5833Z" fill="#1A69AF"/>
<path fill-rule="evenodd" clip-rule="evenodd" d="M21.1309 29.1667C14.0629 29.1667 8.33325 34.8964 8.33325 41.9643C8.33325 44.1011 10.0655 45.8333 12.2023 45.8333H37.7975C39.9344 45.8333 41.6666 44.1011 41.6666 41.9643C41.6666 34.8964 35.9369 29.1667 28.869 29.1667H21.1309ZM28.869 33.3333C33.5361 33.3333 37.338 37.0377 37.4949 41.6667H12.505C12.6618 37.0377 16.4637 33.3333 21.1309 33.3333H28.869Z" fill="#1A69AF"/>
</svg>
