<svg width="37" height="29" viewBox="0 0 37 29" fill="none" xmlns="http://www.w3.org/2000/svg">
<path d="M30.0546 14.819C34.2039 14.819 37 17.6979 37 21.9635C37 25.8021 33.7863 29 29.4335 29C24.6658 29 21.1429 25.1615 21.1429 19.2982C21.1429 5.97136 30.8844 0.640636 37 0V5.86327C32.8534 6.60936 28.1914 10.7669 27.9826 15.3542C28.1914 15.2487 29.0186 14.819 30.0546 14.819ZM8.91436 14.819C13.0584 14.819 15.8571 17.6979 15.8571 21.9635C15.8571 25.8021 12.6434 29 8.29064 29C3.52293 29 0 25.1615 0 19.2982C0 5.97136 9.74157 0.640636 15.8571 0V5.86327C11.7105 6.60936 7.0485 10.7669 6.83971 15.3542C7.0485 15.2487 7.87571 14.819 8.91436 14.819Z" fill="#0D2F5F"/>
</svg>
